HIERARCHY
ROOT mixamorig:Hips
{
	OFFSET 0.000000 77.714516 0.000000
	CHANNELS 6 Xposition Yposition Zposition Xrotation Yrotation Zrotation
	JOINT mixamorig:Spine
	{
		OFFSET 0.000000 14.685699 -1.734700
		CHANNELS 3 Xrotation Yrotation Zrotation
		JOINT mixamorig:Spine1
		{
			OFFSET 0.000000 17.133286 -2.023825
			CHANNELS 3 Xrotation Yrotation Zrotation
			JOINT mixamorig:Spine2
			{
				OFFSET 0.000000 19.580956 -2.312950
				CHANNELS 3 Xrotation Yrotation Zrotation
				JOINT mixamorig:Neck
				{
					OFFSET 0.000000 22.028564 -2.602067
					CHANNELS 3 Xrotation Yrotation Zrotation
					JOINT mixamorig:Head
					{
						OFFSET 0.000000 7.772293 1.167700
						CHANNELS 3 Xrotation Yrotation Zrotation
						JOINT mixamorig:HeadTop_End
						{
							OFFSET 0.000000 26.518204 3.983900
							CHANNELS 3 Xrotation Yrotation Zrotation
							End Site
							{
								OFFSET 0.000000 26.815781 0.000000
							}
						}
					}
				}
				JOINT mixamorig:LeftShoulder
				{
					OFFSET 11.646600 18.513336 -2.583780
					CHANNELS 3 Xrotation Yrotation Zrotation
					JOINT mixamorig:LeftArm
					{
						OFFSET 23.544209 -6.614426 0.036475
						CHANNELS 3 Xrotation Yrotation Zrotation
						JOINT mixamorig:LeftForeArm
						{
							OFFSET 22.756695 0.000000 -0.000001
							CHANNELS 3 Xrotation Yrotation Zrotation
							JOINT mixamorig:LeftHand
							{
								OFFSET 32.238304 0.000000 -0.000001
								CHANNELS 3 Xrotation Yrotation Zrotation
								JOINT mixamorig:LeftHandThumb1
								{
									OFFSET 4.391930 -2.771759 4.066533
									CHANNELS 3 Xrotation Yrotation Zrotation
									JOINT mixamorig:LeftHandThumb2
									{
										OFFSET 4.087418 -2.359879 2.359871
										CHANNELS 3 Xrotation Yrotation Zrotation
										JOINT mixamorig:LeftHandThumb3
										{
											OFFSET 4.044945 -2.335342 2.335349
											CHANNELS 3 Xrotation Yrotation Zrotation
											JOINT mixamorig:LeftHandThumb4
											{
												OFFSET 3.242561 -1.872101 1.872095
												CHANNELS 3 Xrotation Yrotation Zrotation
												End Site
												{
													OFFSET 2.876892 -1.863678 2.402885
												}
											}
										}
									}
								}
								JOINT mixamorig:LeftHandIndex1
								{
									OFFSET 13.080666 -0.495590 3.860911
									CHANNELS 3 Xrotation Yrotation Zrotation
									JOINT mixamorig:LeftHandIndex2
									{
										OFFSET 4.467804 0.000000 0.000000
										CHANNELS 3 Xrotation Yrotation Zrotation
										JOINT mixamorig:LeftHandIndex3
										{
											OFFSET 4.434097 0.000000 0.000000
											CHANNELS 3 Xrotation Yrotation Zrotation
											JOINT mixamorig:LeftHandIndex4
											{
												OFFSET 3.589699 0.000000 0.000000
												CHANNELS 3 Xrotation Yrotation Zrotation
												End Site
												{
													OFFSET 3.589706 0.000000 0.000200
												}
											}
										}
									}
								}
								JOINT mixamorig:LeftHandMiddle1
								{
									OFFSET 12.178093 0.000000 0.000000
									CHANNELS 3 Xrotation Yrotation Zrotation
									JOINT mixamorig:LeftHandMiddle2
									{
										OFFSET 5.491508 0.000000 0.000000
										CHANNELS 3 Xrotation Yrotation Zrotation
										JOINT mixamorig:LeftHandMiddle3
										{
											OFFSET 5.202805 0.000000 0.000000
											CHANNELS 3 Xrotation Yrotation Zrotation
											JOINT mixamorig:LeftHandMiddle4
											{
												OFFSET 4.456505 0.000000 0.000000
												CHANNELS 3 Xrotation Yrotation Zrotation
												End Site
												{
													OFFSET 4.456505 -0.000046 0.006499
												}
											}
										}
									}
								}
								JOINT mixamorig:LeftHandRing1
								{
									OFFSET 11.850945 -0.053970 -3.835439
									CHANNELS 3 Xrotation Yrotation Zrotation
									JOINT mixamorig:LeftHandRing2
									{
										OFFSET 4.691414 0.000000 0.000000
										CHANNELS 3 Xrotation Yrotation Zrotation
										JOINT mixamorig:LeftHandRing3
										{
											OFFSET 4.518303 0.000000 0.000000
											CHANNELS 3 Xrotation Yrotation Zrotation
											JOINT mixamorig:LeftHandRing4
											{
												OFFSET 3.568130 0.000000 0.000000
												CHANNELS 3 Xrotation Yrotation Zrotation
												End Site
												{
													OFFSET 3.568100 -0.000168 0.014599
												}
											}
										}
									}
								}
								JOINT mixamorig:LeftHandPinky1
								{
									OFFSET 10.491814 -0.458572 -7.033705
									CHANNELS 3 Xrotation Yrotation Zrotation
									JOINT mixamorig:LeftHandPinky2
									{
										OFFSET 4.452301 0.000000 0.000000
										CHANNELS 3 Xrotation Yrotation Zrotation
										JOINT mixamorig:LeftHandPinky3
										{
											OFFSET 3.536598 0.000000 0.000000
											CHANNELS 3 Xrotation Yrotation Zrotation
											JOINT mixamorig:LeftHandPinky4
											{
												OFFSET 2.823502 0.000000 0.000000
												CHANNELS 3 Xrotation Yrotation Zrotation
												End Site
												{
													OFFSET 2.823502 0.000000 0.000600
												}
											}
										}
									}
								}
							}
						}
					}
				}
				JOINT mixamorig:RightShoulder
				{
					OFFSET -11.646600 18.513351 -2.620334
					CHANNELS 3 Xrotation Yrotation Zrotation
					JOINT mixamorig:RightArm
					{
						OFFSET -23.544205 -6.614441 -0.036501
						CHANNELS 3 Xrotation Yrotation Zrotation
						JOINT mixamorig:RightForeArm
						{
							OFFSET -22.759399 0.000000 0.000001
							CHANNELS 3 Xrotation Yrotation Zrotation
							JOINT mixamorig:RightHand
							{
								OFFSET -32.238106 0.000000 0.000001
								CHANNELS 3 Xrotation Yrotation Zrotation
								JOINT mixamorig:RightHandThumb1
								{
									OFFSET -4.492897 -2.767944 4.026622
									CHANNELS 3 Xrotation Yrotation Zrotation
									JOINT mixamorig:RightHandThumb2
									{
										OFFSET -4.113335 -2.374832 2.374833
										CHANNELS 3 Xrotation Yrotation Zrotation
										JOINT mixamorig:RightHandThumb3
										{
											OFFSET -4.066299 -2.347672 2.347678
											CHANNELS 3 Xrotation Yrotation Zrotation
											JOINT mixamorig:RightHandThumb4
											{
												OFFSET -3.138756 -1.812164 1.812160
												CHANNELS 3 Xrotation Yrotation Zrotation
												End Site
												{
													OFFSET -2.613274 -1.789185 2.527684
												}
											}
										}
									}
								}
								JOINT mixamorig:RightHandIndex1
								{
									OFFSET -12.930191 -0.141510 3.700550
									CHANNELS 3 Xrotation Yrotation Zrotation
									JOINT mixamorig:RightHandIndex2
									{
										OFFSET -4.764015 0.000000 0.000000
										CHANNELS 3 Xrotation Yrotation Zrotation
										JOINT mixamorig:RightHandIndex3
										{
											OFFSET -4.419807 0.000000 0.000000
											CHANNELS 3 Xrotation Yrotation Zrotation
											JOINT mixamorig:RightHandIndex4
											{
												OFFSET -3.701851 0.000000 0.000000
												CHANNELS 3 Xrotation Yrotation Zrotation
												End Site
												{
													OFFSET -3.701797 0.000153 -0.018699
												}
											}
										}
									}
								}
								JOINT mixamorig:RightHandMiddle1
								{
									OFFSET -12.168388 0.000000 0.000001
									CHANNELS 3 Xrotation Yrotation Zrotation
									JOINT mixamorig:RightHandMiddle2
									{
										OFFSET -5.385834 0.000000 0.000000
										CHANNELS 3 Xrotation Yrotation Zrotation
										JOINT mixamorig:RightHandMiddle3
										{
											OFFSET -5.321609 0.000000 0.000000
											CHANNELS 3 Xrotation Yrotation Zrotation
											JOINT mixamorig:RightHandMiddle4
											{
												OFFSET -4.501015 0.000000 0.000000
												CHANNELS 3 Xrotation Yrotation Zrotation
												End Site
												{
													OFFSET -4.500992 -0.000168 0.011299
												}
											}
										}
									}
								}
								JOINT mixamorig:RightHandRing1
								{
									OFFSET -11.815239 0.302551 -3.905540
									CHANNELS 3 Xrotation Yrotation Zrotation
									JOINT mixamorig:RightHandRing2
									{
										OFFSET -4.583313 0.000000 0.000000
										CHANNELS 3 Xrotation Yrotation Zrotation
										JOINT mixamorig:RightHandRing3
										{
											OFFSET -4.612907 0.000000 0.000000
											CHANNELS 3 Xrotation Yrotation Zrotation
											JOINT mixamorig:RightHandRing4
											{
												OFFSET -3.358940 0.000000 0.000000
												CHANNELS 3 Xrotation Yrotation Zrotation
												End Site
												{
													OFFSET -3.358910 -0.000198 0.016799
												}
											}
										}
									}
								}
								JOINT mixamorig:RightHandPinky1
								{
									OFFSET -10.511444 -0.263382 -6.996516
									CHANNELS 3 Xrotation Yrotation Zrotation
									JOINT mixamorig:RightHandPinky2
									{
										OFFSET -4.477509 0.000000 0.000000
										CHANNELS 3 Xrotation Yrotation Zrotation
										JOINT mixamorig:RightHandPinky3
										{
											OFFSET -3.497902 0.000000 0.000000
											CHANNELS 3 Xrotation Yrotation Zrotation
											JOINT mixamorig:RightHandPinky4
											{
												OFFSET -2.797302 0.000000 0.000000
												CHANNELS 3 Xrotation Yrotation Zrotation
												End Site
												{
													OFFSET -2.797302 -0.000031 0.002200
												}
											}
										}
									}
								}
							}
						}
					}
				}
			}
		}
	}
	JOINT mixamorig:LeftUpLeg
	{
		OFFSET 13.580900 -8.149200 -1.796100
		CHANNELS 3 Xrotation Yrotation Zrotation
		JOINT mixamorig:LeftLeg
		{
			OFFSET 1.779603 -35.946629 -2.676069
			CHANNELS 3 Xrotation Yrotation Zrotation
			JOINT mixamorig:LeftFoot
			{
				OFFSET -1.779600 -26.652353 -2.057156
				CHANNELS 3 Xrotation Yrotation Zrotation
				JOINT mixamorig:LeftToeBase
				{
					OFFSET -1.192457 -6.581663 13.403625
					CHANNELS 3 Xrotation Yrotation Zrotation
					JOINT mixamorig:LeftToe_End
					{
						OFFSET -0.351332 -0.163919 5.937958
						CHANNELS 3 Xrotation Yrotation Zrotation
						End Site
						{
							OFFSET -0.351332 -0.163919 5.937958
						}
					}
				}
			}
		}
	}
	JOINT mixamorig:RightUpLeg
	{
		OFFSET -13.580900 -8.149200 -2.255300
		CHANNELS 3 Xrotation Yrotation Zrotation
		JOINT mixamorig:RightLeg
		{
			OFFSET -1.779582 -35.946686 -2.316831
			CHANNELS 3 Xrotation Yrotation Zrotation
			JOINT mixamorig:RightFoot
			{
				OFFSET 1.779588 -26.652205 -2.090130
				CHANNELS 3 Xrotation Yrotation Zrotation
				JOINT mixamorig:RightToeBase
				{
					OFFSET 1.192391 -6.582412 13.372187
					CHANNELS 3 Xrotation Yrotation Zrotation
					JOINT mixamorig:RightToe_End
					{
						OFFSET 0.351304 -0.164246 5.913598
						CHANNELS 3 Xrotation Yrotation Zrotation
						End Site
						{
							OFFSET 0.351304 -0.164246 5.913598
						}
					}
				}
			}
		}
	}
}
MOTION
Frames: 4
Frame Time: 0.016667
0.671217 13.783524 5.988724 -95.018142 1.411253 -2.890566 2.958682 -0.866357 -0.089010 3.190004 -0.579905 0.392430 3.195707 -0.542837 0.376708 -1.216854 -1.725828 8.446269 -0.918606 5.098705 -6.895216 -0.000000 0.000000 0.000000 1.085465 -13.360059 -4.458436 -18.925588 -21.978922 -12.821472 0.000006 -123.613474 0.000032 4.017566 -14.951624 1.373094 0.699750 -6.020133 19.223938 19.074644 26.512431 -1.026313 3.271096 -0.981125 3.963652 0.000001 -0.000002 -0.000000 0.460246 4.491385 -23.662349 2.316205 4.665552 -52.785071 1.524967 3.943271 -42.272635 -0.000001 0.000001 0.000000 2.486436 8.732143 -25.419649 3.183149 5.209293 -62.832030 1.786111 4.212015 -45.943920 -0.000002 0.000001 -0.000003 3.090041 8.505078 -34.940369 2.632848 4.889069 -56.585272 1.888459 4.308372 -47.321405 -0.000001 -0.000002 0.000002 3.603280 12.761690 -45.581274 1.989436 4.399086 -48.651509 0.930040 3.169108 -32.703854 -0.000002 0.000000 0.000000 -0.402530 13.039003 21.882350 -29.287045 52.464022 15.599368 0.000006 113.260143 -0.000012 10.533717 8.192682 -2.668620 -13.495587 -11.552040 -5.371144 13.666545 -20.582678 -6.820320 3.162434 -4.141746 -22.215054 -0.000003 0.000001 0.000003 0.246058 -3.262782 18.902280 0.589415 -2.269651 29.112647 0.172147 -1.255807 15.610691 -0.000001 -0.000001 -0.000003 -0.702547 -1.215805 21.259777 0.924243 -2.786653 36.691862 0.558032 -2.212354 28.309430 -0.000001 -0.000003 0.000000 -0.941527 -2.664836 38.529234 0.358967 -1.794603 22.620046 0.313720 -1.682023 21.129358 0.000001 0.000001 -0.000001 -2.260386 -1.124651 39.408122 0.612420 -2.310402 29.687605 0.130086 -1.094180 13.559625 0.000001 0.000001 0.000000 -34.608056 5.818940 13.127831 96.017843 -10.806206 2.812376 27.761715 -1.384970 -2.523154 -1.217159 -0.000001 0.000000 0.000000 -0.000000 -0.000002 -31.718032 -2.858524 -1.624145 97.612037 0.011564 -0.070881 26.326780 -1.080856 0.777303 -1.699851 0.000002 0.000003 0.000000 0.000000 0.000000 
0.686935 13.803711 6.061928 -95.028565 1.409311 -2.862291 2.941267 -0.876051 -0.105718 3.169215 -0.602369 0.376471 3.175192 -0.564161 0.360849 -0.788715 -1.725585 8.515718 -0.548418 5.106475 -6.915536 -0.000000 0.000000 -0.000000 1.110028 -13.505177 -4.345701 -18.511689 -21.741184 -13.119804 -0.000017 -123.341783 -0.000002 3.475493 -15.953558 0.988974 0.738782 -5.830973 18.965731 19.005070 26.478272 -0.678984 3.189576 -1.251262 4.359851 0.000000 0.000002 0.000001 0.456595 4.481825 -23.543290 2.289422 4.645147 -52.454941 1.508704 3.925337 -42.035583 0.000000 -0.000001 -0.000000 2.458857 8.694476 -25.305310 3.148490 5.191436 -62.449547 1.769207 4.195629 -45.713442 -0.000000 0.000000 -0.000002 3.057209 8.474886 -34.780932 2.603444 4.869622 -56.239924 1.870383 4.291705 -47.080337 -0.000004 0.000002 -0.000003 3.547979 12.702901 -45.354826 1.967404 4.379674 -48.363576 0.921339 3.155533 -32.546094 0.000002 0.000000 -0.000000 -0.428815 13.487876 21.756975 -28.880762 52.005463 15.823890 -0.000017 113.134003 0.000032 10.454797 8.175672 -2.812710 -13.371237 -11.632959 -5.272801 13.646517 -20.561663 -7.051482 3.197040 -3.858268 -22.431376 -0.000003 0.000006 0.000001 0.244629 -3.259106 18.809941 0.584651 -2.261076 28.991725 0.171505 -1.253483 15.581181 -0.000002 -0.000002 0.000001 -0.693824 -1.225818 21.171327 0.916815 -2.776683 36.538872 0.554827 -2.206397 28.226233 0.000000 -0.000001 -0.000002 -0.926752 -2.666295 38.338320 0.356826 -1.789492 22.552091 0.312429 -1.678645 21.084873 0.000000 -0.000001 0.000000 -2.231313 -1.135487 39.213154 0.607497 -2.301775 29.565601 0.129822 -1.093106 13.545903 -0.000000 0.000001 0.000004 -34.595093 5.797837 13.121954 96.153689 -10.675074 2.795518 27.713844 -1.374019 -2.496479 -1.197652 -0.000005 -0.000001 -0.000000 -0.000001 -0.000000 -31.588314 -2.907903 -1.751578 97.530655 0.166326 -0.066874 26.867277 -1.047829 0.856264 -1.754700 -0.000001 0.000000 0.000001 0.000000 -0.000000 
0.701270 13.806183 6.143326 -95.004250 1.379899 -2.860128 2.924626 -0.881353 -0.124153 3.177755 -0.630128 0.357809 3.184096 -0.589506 0.342283 -0.126941 -1.688458 8.557795 -0.082387 5.172576 -6.854076 0.000000 -0.000000 0.000000 1.161048 -13.877561 -4.193429 -18.007700 -21.235866 -13.512742 -0.000005 -122.853192 0.000004 2.028366 -17.115136 0.233022 0.850601 -5.283888 18.229481 18.756838 26.383796 0.318017 2.886795 -2.009531 5.499533 -0.000000 -0.000001 -0.000000 0.446242 4.454367 -23.202112 2.213376 4.585895 -51.510012 1.462471 3.873560 -41.355668 0.000001 -0.000000 -0.000000 2.380732 8.586376 -24.977706 3.049913 5.139026 -61.354667 1.721138 4.148294 -45.052454 -0.000002 -0.000000 0.000001 2.964071 8.387861 -34.323996 2.520066 4.813019 -55.251839 1.818916 4.243408 -46.388924 0.000001 -0.000000 -0.000001 3.392085 12.533441 -44.705914 1.904913 4.323459 -47.540019 0.896604 3.116474 -32.093894 -0.000002 -0.000000 -0.000000 -0.492952 14.285587 21.687599 -28.199544 50.934773 16.042793 -0.000004 112.803969 0.000003 10.159320 8.328751 -2.991834 -13.319225 -11.639504 -5.214829 13.636608 -20.551266 -7.165728 3.176954 -3.719677 -22.535352 -0.000002 -0.000004 0.000002 0.242097 -3.251286 18.686894 0.582288 -2.256813 28.931947 0.171186 -1.252351 15.566607 0.000001 0.000001 -0.000000 -0.688333 -1.223866 21.056756 0.913133 -2.771719 36.463098 0.553225 -2.203459 28.185122 0.000000 0.000001 -0.000004 -0.919861 -2.660823 38.179839 0.355772 -1.786955 22.518331 0.311781 -1.676972 21.062898 -0.000001 0.000000 0.000002 -2.220024 -1.137176 39.057453 0.605074 -2.297495 29.505290 0.129688 -1.092567 13.539102 0.000000 -0.000002 -0.000000 -34.679357 5.784963 13.147453 96.383907 -10.587366 2.769408 27.507745 -1.341656 -2.414205 -1.149616 -0.000002 -0.000001 -0.000000 -0.000000 -0.000000 -31.548859 -2.926283 -1.850159 97.497692 0.268558 -0.052453 27.347374 -1.001705 0.985233 -1.725673 -0.000003 -0.000000 0.000000 0.000000 -0.000000 
0.714179 13.800777 6.230247 -94.948830 1.320903 -2.882787 2.906092 -0.876046 -0.143176 3.212649 -0.649750 0.335558 3.219344 -0.605815 0.320080 0.765048 -1.625334 8.552100 0.532298 5.233084 -6.745795 -0.000000 -0.000000 0.000000 1.236333 -14.519129 -4.042133 -17.154341 -20.443274 -13.960773 -0.000016 -122.099180 0.000001 0.329456 -18.274308 -0.279190 1.028122 -4.401885 17.073832 18.186256 26.242265 1.907701 2.462415 -3.260455 7.344592 -0.000002 0.000001 -0.000002 0.430119 4.410781 -22.662720 2.095383 4.489835 -50.018636 1.390561 3.790527 -40.279886 0.000001 -0.000000 0.000000 2.259900 8.414752 -24.460258 2.896374 5.052478 -59.626247 1.646143 4.072287 -44.006420 -0.000001 -0.000001 0.000001 2.819645 8.248528 -33.601792 2.390528 4.720862 -53.693193 1.738726 4.165714 -45.294915 0.000001 0.000000 -0.000001 3.153278 12.262164 -43.680870 1.808028 4.233022 -46.241255 0.858117 3.054360 -31.378934 0.000000 0.000000 -0.000001 -0.595361 15.379067 21.696531 -27.351718 49.344845 16.400980 0.000022 112.325657 -0.000020 9.603063 8.586221 -3.138995 -13.275565 -11.619621 -5.150387 13.626883 -20.541005 -7.278192 3.156786 -3.583214 -22.637924 0.000003 0.000006 0.000001 0.238265 -3.238822 18.505238 0.579976 -2.252613 28.873091 0.170849 -1.251216 15.552260 -0.000001 -0.000002 0.000001 -0.681959 -1.216496 20.888429 0.909533 -2.766843 36.388389 0.551688 -2.200542 28.144647 -0.000001 0.000002 -0.000001 -0.913344 -2.650568 37.973444 0.354735 -1.784441 22.484955 0.311154 -1.675341 21.041298 -0.000001 -0.000002 -0.000002 -2.211325 -1.135867 38.857397 0.602692 -2.293311 29.445939 0.129565 -1.092018 13.532428 -0.000001 0.000001 0.000002 -34.837527 5.791122 13.203538 96.691764 -10.575150 2.728239 27.137977 -1.289764 -2.275385 -1.063480 -0.000002 -0.000001 0.000000 0.000001 0.000000 -31.600758 -2.922375 -1.922784 97.545511 0.308932 -0.032345 27.638548 -0.955112 1.127969 -1.598869 -0.000000 0.000001 -0.000000 0.000000 -0.000000 
